<svg width="110" height="110" viewBox="0 0 110 110" fill="none" xmlns="http://www.w3.org/2000/svg">
<path d="M3 31.718C3 30.408 4.31411 29.5054 5.53679 29.9757L51.4102 47.6193C53.7209 48.508 56.2791 48.508 58.5898 47.6193L104.463 29.9757C105.686 29.5054 107 30.408 107 31.718C107 32.4903 106.524 33.183 105.803 33.4602L58.5898 51.6193C56.2791 52.508 53.7209 52.508 51.4102 51.6193L4.19659 33.4602C3.47569 33.183 3 32.4903 3 31.718Z" fill="#D9D9D9"/>
<path opacity="0.5" d="M11 50.257C11 49.1666 12.091 48.4133 13.1107 48.7995L51.4577 63.3249C53.7401 64.1894 56.2599 64.1894 58.5423 63.3249L96.8893 48.7995C97.909 48.4133 99 49.1666 99 50.257C99 50.9048 98.5993 51.4851 97.9935 51.7146L58.5423 66.6582C56.2599 67.5228 53.7401 67.5228 51.4577 66.6582L12.0065 51.7146C11.4007 51.4851 11 50.9048 11 50.257Z" fill="#D9D9D9"/>
<path opacity="0.3" d="M24 68.5776C24 67.8147 24.7625 67.287 25.4765 67.5557L51.4777 77.3411C53.7482 78.1956 56.2518 78.1956 58.5223 77.3411L84.5235 67.5557C85.2375 67.287 86 67.8147 86 68.5776C86 69.0323 85.7182 69.4394 85.2927 69.5995L58.5223 79.6744C56.2518 80.5289 53.7482 80.5289 51.4777 79.6744L24.7073 69.5995C24.2818 69.4394 24 69.0323 24 68.5776Z" fill="#D9D9D9"/>
</svg>
