<svg width="38" height="44" viewBox="0 0 38 44" fill="none" xmlns="http://www.w3.org/2000/svg">
<path fill-rule="evenodd" clip-rule="evenodd" d="M0 42.625C0 31.9935 8.50659 23.375 19 23.375C29.4934 23.375 38 31.9935 38 42.625V44H35.2857V42.625C35.2857 33.5123 27.9944 26.125 19 26.125C10.0056 26.125 2.71429 33.5123 2.71429 42.625V44H0V42.625Z" fill="#AA7C3E"/>
<path fill-rule="evenodd" clip-rule="evenodd" d="M12.2143 10.3125C12.2143 14.4892 15.5562 17.875 19.6786 17.875C23.801 17.875 27.1429 14.4892 27.1429 10.3125C27.1429 6.13585 23.801 2.75 19.6786 2.75C15.5562 2.75 12.2143 6.13585 12.2143 10.3125ZM19.6786 0C14.0571 0 9.5 4.61706 9.5 10.3125C9.5 16.0079 14.0571 20.625 19.6786 20.625C25.3 20.625 29.8571 16.0079 29.8571 10.3125C29.8571 4.61706 25.3 0 19.6786 0Z" fill="#AA7C3E"/>
</svg>
