<svg width="63" height="58" viewBox="0 0 63 58" fill="none" xmlns="http://www.w3.org/2000/svg">
<g filter="url(#filter0_d_391_404)">
<path d="M50.7985 4.07447L48.7867 5.23489C48.4911 5.04386 48.1095 5.0502 47.7104 5.35881C47.4915 5.62578 47.4377 5.81576 47.4479 6.00781L45.4361 7.1683C45.1427 6.97911 44.7648 6.98411 44.3632 7.29063C44.1408 7.55927 44.0871 7.74928 44.0972 7.94138L43.2562 8.42729C42.4189 7.34015 40.9229 6.92748 39.6439 7.50468L33.2264 10.3073C32.9417 9.81262 32.4077 9.67017 31.9912 9.91228C23.6449 14.733 15.2953 19.5477 6.9499 24.3699C4.64602 25.7 3.84929 28.6671 5.17944 30.9709L7.50041 34.9893C8.83056 37.2931 11.8009 38.095 14.1048 36.7648L15.3214 36.0631L17.2566 38.0698C18.7079 39.5707 19.6373 41.5009 19.9055 43.5714L20.3405 46.8796L20.5563 48.5362C20.6181 49.0103 21.0502 49.3458 21.5248 49.2872C22.0029 49.2284 22.3439 48.7928 22.2825 48.3136L22.0668 46.657L21.6318 43.3489C21.3156 40.9075 20.2218 38.628 18.5106 36.8583L16.8726 35.166L24.7021 30.6464L24.945 31.8409L23.8083 32.4984C22.9596 32.9884 22.6016 34.0489 22.9826 34.9519L25.2679 40.3669C25.5149 40.9525 26.0613 41.3283 26.6509 41.4033L27.5379 44.4974C27.6699 44.9608 28.1522 45.2278 28.6151 45.0938C29.0785 44.9616 29.3471 44.4795 29.2132 44.0166L28.3058 40.8477L29.395 40.2191C30.2437 39.7291 30.6 38.6668 30.219 37.7639L27.9405 32.3454C27.7022 31.7805 27.1827 31.4175 26.6152 31.326L26.289 29.7306L39.1478 22.3055C39.5648 22.0654 39.7079 21.5327 39.423 21.0388L45.0556 16.8769C46.1967 16.0564 46.5894 14.5559 46.0631 13.2867L48.9167 11.6641C49.3306 11.9498 49.8707 11.8517 50.1443 11.4587C50.267 11.2799 50.3185 11.0618 50.2888 10.847L52.2673 9.72902C52.6812 10.0147 53.2213 9.91661 53.4949 9.52358C53.6176 9.34484 53.6691 9.12669 53.6393 8.91192L55.6111 7.79903C56.0272 8.0887 56.5726 7.98878 56.8455 7.59001C56.9666 7.41127 57.0169 7.19376 57.0273 6.95617C58.4003 6.16328 58.8635 4.43311 58.0944 3.10098C56.9863 1.6416 55.7105 1.37777 54.2629 2.0747L52.139 3.29972C51.843 3.10791 51.4604 3.11398 51.061 3.42364C50.8417 3.69095 50.7879 3.88185 50.7985 4.07447ZM56.5873 3.97255C57.0223 4.9981 56.6802 5.25336 55.6698 5.7294L53.7277 4.39386L55.1329 3.58171C55.7603 3.27429 56.3068 3.472 56.5873 3.97255ZM52.0609 5.35562L54.003 6.69109L52.3226 7.6613L50.3788 6.32744L52.0609 5.35562ZM48.7137 7.2892L50.6558 8.62291L48.9736 9.59488L47.0299 8.26101L48.7137 7.2892ZM41.9836 9.61697L44.3997 13.8018C44.6696 14.2693 44.6119 14.8283 44.2892 15.2273L40.084 10.6228C39.8024 10.318 39.3454 10.255 38.9209 10.5198C38.4968 10.8947 38.4755 11.4472 38.8029 11.8001L42.9011 16.2873L38.5038 19.4477L34.1422 11.8935L34.584 11.6946L38.531 16.1429C38.85 16.5031 39.4016 16.5357 39.7612 16.2158C40.1213 15.8969 40.1539 15.3469 39.8342 14.9874L36.2491 10.9452L40.3626 9.09318C41.0551 8.78182 41.62 8.97786 41.9836 9.61697ZM45.3614 9.22445L47.3051 10.5582L45.2237 11.7595L44.1601 9.91762L45.3614 9.22445ZM10.1697 24.5231L32.1084 11.8563L37.5234 21.2336L15.5567 33.8052L10.1697 24.5231ZM28.0663 16.6461L26.391 17.6129C25.5212 18.115 25.2109 19.2528 25.713 20.1224L26.6798 21.7978C27.1819 22.6675 28.323 22.9676 29.1928 22.4655L30.8681 21.4987C31.7378 20.9966 32.0414 19.8622 31.5392 18.9925L30.5724 17.3172C29.8011 16.3509 29.0842 16.2007 28.0663 16.6461ZM28.2566 20.9457L27.2397 19.1837L28.9982 18.1684L30.0151 19.9305L28.2566 20.9457ZM20.524 21.0008L13.8295 24.8663C13.4125 25.1061 13.2694 25.639 13.5101 26.0555C13.7522 26.4681 14.282 26.6078 14.6961 26.3682L21.3905 22.5028C21.8058 22.2643 21.9501 21.7348 21.7133 21.3185C21.3027 20.8161 21.1317 20.7612 20.524 21.0008ZM22.4593 24.3514L15.7631 28.2169C15.3495 28.456 15.2061 28.9839 15.442 29.3994C15.6819 29.8165 16.2148 29.9596 16.6313 29.719L23.3258 25.8535C23.7429 25.6136 23.886 25.0807 23.6452 24.6642C23.2174 24.1873 22.9761 24.1619 22.4593 24.3514ZM8.66089 25.3929L14.0742 34.7703L13.2349 35.2562C11.7453 36.1161 9.8692 35.6091 9.0092 34.1195L6.68823 30.1012C5.82825 28.6117 6.33028 26.7389 7.81983 25.8789L8.66089 25.3929ZM26.3485 33.0423L28.6185 38.4335C28.6637 38.5406 28.624 38.6522 28.5233 38.7103L26.8599 39.6703L24.5899 34.2809C24.5447 34.1737 24.5776 34.0655 24.6783 34.0072L26.3485 33.0423Z" fill="#AA7C3E"/>
</g>
<defs>
<filter id="filter0_d_391_404" x="-2" y="0" width="67" height="59" filterUnits="userSpaceOnUse" color-interpolation-filters="sRGB">
<feFlood flood-opacity="0" result="BackgroundImageFix"/>
<feColorMatrix in="SourceAlpha" type="matrix" values="0 0 0 0 0 0 0 0 0 0 0 0 0 0 0 0 0 0 127 0" result="hardAlpha"/>
<feOffset dy="4"/>
<feGaussianBlur stdDeviation="2"/>
<feComposite in2="hardAlpha" operator="out"/>
<feColorMatrix type="matrix" values="0 0 0 0 0 0 0 0 0 0 0 0 0 0 0 0 0 0 0.25 0"/>
<feBlend mode="normal" in2="BackgroundImageFix" result="effect1_dropShadow_391_404"/>
<feBlend mode="normal" in="SourceGraphic" in2="effect1_dropShadow_391_404" result="shape"/>
</filter>
</defs>
</svg>
