<svg width="120" height="26" viewBox="0 0 120 26" fill="none" xmlns="http://www.w3.org/2000/svg">
<path d="M10 0L12.2451 6.90983H19.5106L13.6327 11.1803L15.8779 18.0902L10 13.8197L4.12215 18.0902L6.36729 11.1803L0.489435 6.90983H7.75486L10 0Z" fill="#AA7C3E"/>
<path d="M35 3L37.2451 9.90983H44.5106L38.6327 14.1803L40.8779 21.0902L35 16.8197L29.1221 21.0902L31.3673 14.1803L25.4894 9.90983H32.7549L35 3Z" fill="#AA7C3E"/>
<path d="M60 6L62.2451 12.9098H69.5106L63.6327 17.1803L65.8779 24.0902L60 19.8197L54.1221 24.0902L56.3673 17.1803L50.4894 12.9098H57.7549L60 6Z" fill="#AA7C3E"/>
<path d="M85 3L87.2451 9.90983H94.5106L88.6327 14.1803L90.8779 21.0902L85 16.8197L79.1221 21.0902L81.3673 14.1803L75.4894 9.90983H82.7549L85 3Z" fill="#AA7C3E"/>
<path d="M110 0L112.245 6.90983H119.511L113.633 11.1803L115.878 18.0902L110 13.8197L104.122 18.0902L106.367 11.1803L100.489 6.90983H107.755L110 0Z" fill="#AA7C3E"/>
</svg>
