<svg width="130" height="130" viewBox="0 0 130 130" fill="none" xmlns="http://www.w3.org/2000/svg">
<path d="M60.9746 59.8008V67.376C60.9747 69.0327 62.3178 70.376 63.9746 70.376H115.743L121.268 73.1475C121.397 74.1724 122.063 75.0281 122.978 75.4248C122.063 75.8213 121.397 76.6782 121.268 77.7031L115.743 80.4756H59.7354C58.3643 80.4756 57.1673 81.405 56.8281 82.7334L50.3779 108H40.3271L46.3984 84.2178C46.8827 82.3208 45.4499 80.4758 43.4922 80.4756H20.1758V70.376H50.5557C52.2122 70.3757 53.5555 69.0326 53.5557 67.376V59.8008H60.9746ZM16.1758 70.376V80.4756H7V70.376H16.1758ZM75.0254 32.9443L71.6934 41.083L68.3057 47.9062L62.0117 55.8008H52.5186L49.6055 52.1475L46.2402 47.9277L42.835 40.5996L39.5576 32.9443H75.0254ZM69.5938 22L74.2539 28.9443H40.2754L44.9355 22H69.5938Z" stroke="#5A74E7" stroke-width="4"/>
</svg>
