<svg width="60" height="60" viewBox="0 0 60 60" fill="none" xmlns="http://www.w3.org/2000/svg">
<path d="M55.6873 32.4375L52.4998 29.25V26.25C52.4998 20.0625 50.0623 14.625 45.9373 10.3125L43.1248 22.875C42.9373 23.8125 42.1873 24.375 41.2498 24.375C41.0623 24.375 41.0623 24.375 40.8748 24.375C39.9373 24.1875 39.1873 23.0625 39.3748 22.125L43.1248 5.4375C43.1248 4.875 42.7498 4.125 42.1873 3.9375C34.6873 0.1875 25.4998 0.1875 17.9998 3.9375C17.2498 4.3125 16.8748 4.875 16.8748 5.4375L20.6248 22.125C20.8123 23.0625 20.2498 24.1875 19.1248 24.375C18.9373 24.375 18.9373 24.375 18.7498 24.375C17.8123 24.375 17.0623 23.8125 16.8748 22.875L14.0623 10.3125C9.93728 14.625 7.49978 20.0625 7.49978 26.25V29.25L4.31228 32.4375C3.74978 33 3.56228 33.75 3.93728 34.5C4.12478 35.25 4.87478 35.625 5.62478 35.625H54.3748C55.1248 35.625 55.8748 35.25 56.0623 34.5C56.4373 33.75 56.2498 33 55.6873 32.4375Z" fill="#AA7C3E"/>
<path d="M37.3125 39.375C37.5 39.9375 37.5 40.6875 37.5 41.25C37.5 45.375 34.125 48.75 30 48.75C25.875 48.75 22.5 45.375 22.5 41.25C22.5 40.6875 22.6875 39.9375 22.6875 39.375H12.5625C12.5625 39.9375 12.375 40.6875 12.375 41.25C12.375 42.5625 12.5625 43.875 12.9375 45.375C13.125 46.3125 14.0625 46.875 15 46.6875C16.125 46.5 17.25 47.0625 18 48.1875C18.75 49.3125 18.5625 50.4375 17.8125 51.375C17.25 52.125 17.25 53.25 18 53.8125C20.0625 55.6875 22.5 57.1875 25.125 57.9375C26.0625 58.125 27 57.75 27.375 56.8125C27.75 55.6875 28.875 54.9375 30 54.9375C31.125 54.9375 32.25 55.6875 32.625 56.8125C33 57.5625 33.5625 57.9375 34.3125 57.9375C34.5 57.9375 34.6875 57.9375 34.875 57.9375C37.5 57.1875 39.9375 55.6875 42 53.8125C42.75 53.0625 42.75 52.125 42.1875 51.375C41.4375 50.4375 41.4375 49.125 42 48.1875C42.5625 47.25 43.6875 46.5 45 46.6875C45.9375 46.875 46.875 46.125 47.0625 45.1875C47.4375 43.875 47.625 42.375 47.625 41.0625C47.625 40.5 47.625 39.75 47.4375 39.1875H37.3125V39.375Z" fill="#AA7C3E"/>
</svg>
