<svg width="75" height="56" viewBox="0 0 75 56" fill="none" xmlns="http://www.w3.org/2000/svg">
<g filter="url(#filter0_d_406_40)">
<path fill-rule="evenodd" clip-rule="evenodd" d="M43.9098 0.467611L71.4967 16.4713C73.1561 17.4339 73.7246 19.5659 72.7666 21.2332L70.4011 25.3499C69.4431 27.0172 67.3213 27.5885 65.6619 26.6259L38.075 10.6222C36.4156 9.65955 35.8471 7.52757 36.8051 5.86027L39.1706 1.74356C40.1286 0.0762526 42.2504 -0.495008 43.9098 0.467611ZM43.5944 1.01651C42.2367 0.228909 40.5007 0.696304 39.7169 2.06046L37.3514 6.17717C36.5676 7.54133 37.0327 9.28567 38.3904 10.0733L65.9773 26.077C67.335 26.8646 69.071 26.3972 69.8548 25.033L72.2203 20.9163C73.0041 19.5521 72.539 17.8078 71.1813 17.0202L43.5944 1.01651Z" fill="#816034"/>
<path fill-rule="evenodd" clip-rule="evenodd" d="M37.1149 6.58885L36.6418 7.41219L53.986 17.4739C54.2123 17.6052 54.5017 17.5273 54.6323 17.2999C54.7629 17.0726 54.6854 16.7818 54.4591 16.6506L37.1149 6.58885Z" fill="#816034"/>
<path d="M72.3357 21.3492L64.6879 16.9125C64.4616 16.7813 64.3841 16.4905 64.5147 16.2632C64.6453 16.0358 64.9347 15.9579 65.161 16.0892L72.8088 20.5258L72.3357 21.3492Z" fill="#816034"/>
<path fill-rule="evenodd" clip-rule="evenodd" d="M71.826 21.6024L73.738 22.7116C74.9448 23.4117 75.3583 24.9622 74.6615 26.1748L67.8806 37.976C67.1839 39.1886 65.6407 39.6041 64.4339 38.904L46.8165 28.6838L45.3951 31.1576L46.4957 31.224C47.2057 31.2669 47.6166 32.052 47.2493 32.664L43.2486 39.3301L39.3498 46.4241C39.1702 46.7508 38.817 46.9418 38.4467 46.9122L35.1445 46.649C34.8573 46.6261 34.596 46.4729 34.4349 46.2328L32.6183 43.5264C32.417 43.2264 32.4026 42.8376 32.5811 42.5234L34.5485 39.0614L35.6979 37.3547L36.5568 35.5349C36.5774 35.4913 36.6012 35.4494 36.6281 35.4094L37.7506 33.7426L38.6301 31.8793L40.4403 28.694C40.79 28.0785 41.6629 28.0501 42.0515 28.6416L42.6637 29.5731L44.3217 26.6876C45.062 25.3992 46.7016 24.9578 47.9838 25.7016L65.4646 35.8426L71.6148 25.1391L70.2491 24.3469L71.826 21.6024ZM42.7023 39.0131L46.7091 32.3367C46.8316 32.1327 46.6946 31.871 46.458 31.8567L44.8479 31.7596C44.6138 31.7455 44.4764 31.4888 44.5936 31.2848L46.4279 28.0924C46.515 27.9409 46.7079 27.8889 46.8588 27.9764L64.7493 38.3551C65.6544 38.8801 66.8118 38.5685 67.3343 37.6591L74.1153 25.8579C74.6378 24.9484 74.3277 23.7855 73.4226 23.2605L72.0569 22.4682L71.1108 24.1149L72.2033 24.7487C72.3542 24.8362 72.4058 25.03 72.3187 25.1816L65.8532 36.4339C65.7661 36.5855 65.5732 36.6375 65.4224 36.5499L47.6684 26.2505C46.6879 25.6817 45.4341 26.0193 44.868 27.0045L42.9548 30.3341C42.8376 30.5381 42.5476 30.5468 42.4185 30.3503L41.5251 28.9908C41.3956 28.7936 41.1046 28.8031 40.9881 29.0082L39.1898 32.1726L38.3103 34.036C38.3034 34.0506 38.2955 34.0645 38.2865 34.0779L37.1505 35.7646C37.1416 35.778 37.1336 35.7919 37.1268 35.8065L36.2576 37.6481C36.2507 37.6626 36.2428 37.6766 36.2338 37.6899L35.0844 39.3967L33.1289 42.8377C33.0694 42.9424 33.0742 43.072 33.1413 43.172L34.9579 45.8784C35.0116 45.9585 35.0987 46.0095 35.1944 46.0171L38.4966 46.2804C38.62 46.2903 38.7378 46.2266 38.7976 46.1177L42.7023 39.0131Z" fill="#816034"/>
<path d="M3.69883 12.0975L5.98446 20.6685C6.05208 20.9221 5.90231 21.1827 5.64993 21.2507C5.39756 21.3186 5.13814 21.1681 5.07052 20.9146L2.78489 12.3436L3.69883 12.0975Z" fill="#816034"/>
<path d="M6.28832 11.4003L7.85969 17.2929C7.91604 17.5042 7.79123 17.7214 7.58092 17.778C7.3706 17.8347 7.15443 17.7093 7.09807 17.4979L5.5267 11.6054L6.28832 11.4003Z" fill="#816034"/>
<path d="M17.7125 8.32455L20.7737 19.8035C20.8413 20.0571 20.6915 20.3178 20.4391 20.3857C20.1868 20.4537 19.9273 20.3032 19.8597 20.0496L16.7986 8.57061L17.7125 8.32455Z" fill="#816034"/>
<path fill-rule="evenodd" clip-rule="evenodd" d="M5.48629 32.1215C5.41466 31.9503 5.35386 31.7725 5.30489 31.5888L0.674242 14.2242C0.493911 13.5479 0.893302 12.8529 1.56631 12.6717L19.2358 7.91444C19.9088 7.73325 20.6005 8.13455 20.7809 8.81079L25.4159 26.1918C25.4634 26.3698 25.4985 26.5486 25.5217 26.7273C25.747 28.4609 24.8518 30.1778 23.252 30.9613L19.6066 32.7467C19.1763 32.9575 18.9704 33.458 19.1271 33.9125L24.9341 50.7581C25.5904 52.6619 24.5009 54.7252 22.5641 55.2467C20.6359 55.7658 18.6724 54.5394 18.2824 52.5723L14.8127 35.073C14.7193 34.6019 14.2907 34.2748 13.8139 34.3108L9.57226 34.6308C7.79579 34.7648 6.16069 33.7337 5.48629 32.1215ZM19.0725 7.30223C20.082 7.03044 21.1197 7.6324 21.3902 8.64674L26.0252 26.0278C26.6114 28.2263 25.5645 30.5338 23.5283 31.5311L19.883 33.3165C19.7395 33.3867 19.6709 33.5535 19.7231 33.705L25.5301 50.5507C26.3062 52.8021 25.0178 55.2422 22.7274 55.8589C20.4471 56.4728 18.125 55.0225 17.6638 52.6961L14.1941 35.1969C14.1629 35.0398 14.0201 34.9308 13.8611 34.9428L9.61949 35.2628C7.35199 35.4338 5.28412 33.9598 4.6956 31.7529L0.0649501 14.3882C-0.205547 13.3739 0.39354 12.3312 1.40305 12.0594L19.0725 7.30223Z" fill="#816034"/>
<path fill-rule="evenodd" clip-rule="evenodd" d="M23.2285 51.0488C23.4652 51.9363 22.941 52.8486 22.0577 53.0864C21.1744 53.3242 20.2664 52.7975 20.0297 51.91C19.793 51.0224 20.3172 50.1101 21.2006 49.8723C22.0839 49.6345 22.9918 50.1612 23.2285 51.0488ZM21.8944 52.4742C22.4412 52.327 22.7657 51.7622 22.6192 51.2128C22.4727 50.6634 21.9106 50.3373 21.3638 50.4845C20.817 50.6317 20.4925 51.1965 20.639 51.7459C20.7855 52.2954 21.3476 52.6214 21.8944 52.4742Z" fill="#816034"/>
<path d="M5.02248 31.7543L25.5861 26.2178L25.7493 26.8301L5.18574 32.3665L5.02248 31.7543Z" fill="#816034"/>
</g>
<defs>
<filter id="filter0_d_406_40" x="0" y="0" width="75" height="56" filterUnits="userSpaceOnUse" color-interpolation-filters="sRGB">
<feFlood flood-opacity="0" result="BackgroundImageFix"/>
<feColorMatrix in="SourceAlpha" type="matrix" values="0 0 0 0 0 0 0 0 0 0 0 0 0 0 0 0 0 0 127 0" result="hardAlpha"/>
<feOffset/>
<feComposite in2="hardAlpha" operator="out"/>
<feColorMatrix type="matrix" values="0 0 0 0 1 0 0 0 0 1 0 0 0 0 1 0 0 0 0.25 0"/>
<feBlend mode="normal" in2="BackgroundImageFix" result="effect1_dropShadow_406_40"/>
<feBlend mode="normal" in="SourceGraphic" in2="effect1_dropShadow_406_40" result="shape"/>
</filter>
</defs>
</svg>
