<svg width="132" height="44" viewBox="0 0 132 44" fill="none" xmlns="http://www.w3.org/2000/svg">
<path d="M46.8909 44L55.8314 0H74.9004C83.4033 0 86.9357 3.51795 85.4977 10.5538C84.3515 16.2769 79.3394 20.7179 70.4614 23.8769L81.5902 44H74.5878L64.3968 24.2154L65.1471 20.4923C73.5458 19.159 78.2661 15.9282 79.3081 10.8C80.1209 6.73846 78.1515 4.70769 73.3999 4.70769H60.6456L52.6741 44H46.8909Z" fill="white"/>
<path d="M17.1933 39.3846C28.1345 39.3846 34.866 33.1897 37.3877 20.8C39.5759 10.0103 35.1994 4.61538 24.2582 4.61538H19.0221H17.631H13.7859L6.72103 39.3846H17.1933ZM0 44L8.94053 0H14.9017L13.7859 4.61538H17.631L18.7418 0H25.196C39.9927 0 45.9843 6.93333 43.1709 20.8C40.024 36.2667 31.0522 44 16.2555 44H0Z" fill="white"/>
<path d="M105.348 39.3846C116.289 39.3846 123.021 33.1897 125.543 20.8C127.731 10.0103 123.354 4.61538 112.413 4.61538H107.177H105.786H101.941L94.8759 39.3846H105.348ZM88.1549 44L97.0954 0H103.057L101.941 4.61538H105.786L106.897 0H113.351C128.148 0 134.139 6.93333 131.326 20.8C128.179 36.2667 119.207 44 104.41 44H88.1549Z" fill="white"/>
</svg>
