<svg width="128" height="128" viewBox="0 0 128 128" fill="none" xmlns="http://www.w3.org/2000/svg">
<path d="M10.484 39.879C10.7039 29.3399 14.3977 21.5021 21.3895 15.2584C23.6322 13.2214 24.7427 13.367 29.2427 13C31.7427 12.7961 32 13 33.4823 13C36.5 13.5 37.6159 14.0628 38.4514 16.2326C41.3976 23.9376 44.2559 31.6426 47.1142 39.3919C48.0816 42.0488 46.4106 44.13 45.0035 46.0341C43.3764 48.2925 41.3976 50.2852 39.4627 52.2778C37.4839 54.3148 37.2201 55.4661 38.5833 57.9459C46.5425 72.5146 57.7119 83.7178 72.8829 90.6258C73.4105 90.8472 73.9382 91.1572 74.4659 91.4229C76.4887 92.3528 78.2916 92.1314 79.8307 90.3601C82.6451 87.039 85.7232 83.9835 88.3177 80.4853C90.0327 78.1826 91.2199 77.7841 93.8144 78.9354C101.554 82.3008 108.809 86.5519 116.197 90.6701C117.56 91.4228 118.044 92.5742 118 94.1683C117.604 107.231 110.173 114.051 97.1124 117.062C90.7802 118.523 84.9317 116.929 79.1271 114.804C66.9464 110.375 55.2054 105.15 45.3552 96.3824C37.5279 89.3859 30.624 81.5923 24.7755 72.8688C20.2902 66.138 15.6289 59.54 13.0345 51.7022C11.5394 47.5397 10.44 43.2887 10.484 39.879Z" fill="#0B6606"/>
</svg>
