<svg width="39" height="39" viewBox="0 0 39 39" fill="none" xmlns="http://www.w3.org/2000/svg">
<path d="M32.0356 32.0357L22.0973 22.0974C21.3209 21.321 21.1296 20.1344 21.6227 19.1533L22.2117 17.9813C23.5205 15.3771 23.5269 12.3087 22.2289 9.6991V9.6991C21.3307 7.89337 19.8676 6.43024 18.0619 5.53207V5.53207C15.4522 4.23405 12.3562 4.25429 9.752 5.56314V5.56314C7.95373 6.46694 6.47606 7.93541 5.57227 9.73369L5.50601 9.86553C4.2243 12.4157 4.21807 15.4205 5.48917 17.976L5.54339 18.085C6.43163 19.8708 7.90499 21.2983 9.71795 22.1296V22.1296C11.2498 22.832 12.9523 23.0757 14.6197 22.8311L16.1817 22.602" stroke="#AA7C3E" stroke-width="2" stroke-linecap="round"/>
</svg>
