<svg width="50" height="54" viewBox="0 0 50 54" fill="none" xmlns="http://www.w3.org/2000/svg">
<path d="M0.473335 11.0515C0.207659 8.41427 2.04611 6.02797 4.66387 5.61221L9.28971 4.87752C11.416 4.53982 13.4737 3.86103 15.3836 2.86736L18.1046 1.45165C19.1923 0.885766 20.3747 0.524719 21.5929 0.386517L23.8728 0.127878C24.6219 0.0428986 25.3781 0.0428986 26.1272 0.127878L28.4071 0.386517C29.6253 0.524719 30.8077 0.885766 31.8954 1.45165L34.6164 2.86737C36.5263 3.86103 38.584 4.53982 40.7103 4.87752L45.3361 5.61221C47.9539 6.02797 49.7923 8.41427 49.5267 11.0515L48.6011 20.2388C48.2024 24.1969 47.2453 28.0787 45.7585 31.7685L45.11 33.3778C41.8101 41.5669 35.7199 48.3248 27.9169 52.4557C26.0923 53.4217 23.9077 53.4217 22.0831 52.4557C14.2801 48.3248 8.18991 41.5669 4.89001 33.3778L4.24154 31.7685C2.75467 28.0787 1.79762 24.1969 1.39887 20.2388L0.473335 11.0515Z" fill="#AA7C3E"/>
<path d="M2.96708 12.5237C2.72977 10.1529 4.38161 8.00801 6.73441 7.63192L10.3526 7.05357C12.5427 6.70348 14.6616 6.00029 16.6264 4.9714L18.7501 3.85939C19.7873 3.31626 20.916 2.96954 22.0793 2.83672L23.9223 2.62629C24.6385 2.54453 25.3615 2.54453 26.0777 2.62629L27.9207 2.83672C29.084 2.96954 30.2127 3.31626 31.2499 3.8594L33.3736 4.9714C35.3384 6.00029 37.4573 6.70348 39.6474 7.05357L43.2656 7.63192C45.6184 8.00801 47.2702 10.1529 47.0329 12.5237L46.2131 20.7143C45.8525 24.3165 44.9867 27.8501 43.641 31.2109L43.0112 32.7839C40.0357 40.2156 34.5288 46.3563 27.4639 50.1207C25.9238 50.9412 24.0762 50.9412 22.5361 50.1207C15.4712 46.3563 9.96432 40.2156 6.98877 32.7839L6.35897 31.2109C5.01334 27.8501 4.14749 24.3165 3.78692 20.7143L2.96708 12.5237Z" fill="#AA7C3E" stroke="#202020"/>
<rect x="17.6802" y="21.6602" width="12.0374" height="3" rx="1.5" transform="rotate(45 17.6802 21.6602)" fill="#202020"/>
<rect x="36.5713" y="19.832" width="17.6497" height="3" rx="1.5" transform="rotate(135 36.5713 19.832)" fill="#202020"/>
</svg>
