<svg width="130" height="130" viewBox="0 0 130 130" fill="none" xmlns="http://www.w3.org/2000/svg">
<path d="M63.6562 28.3223C64.2078 27.2122 65.7922 27.2122 66.3438 28.3223L75.1094 45.9658C76.0558 47.8706 77.8745 49.1914 79.9785 49.5029L99.4678 52.3887C100.694 52.5703 101.183 54.0758 100.298 54.9434L86.2266 68.7324C84.7074 70.2212 84.0132 72.3596 84.3672 74.457L87.6455 93.8838C87.8514 95.1059 86.5703 96.0367 85.4717 95.4629L68.0098 86.3418C66.1244 85.357 63.8756 85.357 61.9902 86.3418L44.5283 95.4629C43.4297 96.0367 42.1486 95.1059 42.3545 93.8838L45.6328 74.457C45.9868 72.3596 45.2926 70.2212 43.7734 68.7324L29.7021 54.9434C28.817 54.0758 29.3063 52.5703 30.5322 52.3887L50.0215 49.5029C52.1255 49.1914 53.9442 47.8706 54.8906 45.9658L63.6562 28.3223Z" stroke="#DFBC54" stroke-width="5"/>
</svg>
