<svg width="70" height="70" viewBox="0 0 70 70" fill="none" xmlns="http://www.w3.org/2000/svg">
<path d="M60.7142 9.45907C60.7142 9.45907 66.4497 7.20822 65.9717 12.6746C65.8124 14.9255 64.3786 22.8035 63.2633 31.3246L59.4397 56.5664C59.4397 56.5664 59.1211 60.2642 56.2533 60.9074C53.3855 61.5504 49.0841 58.6566 48.2874 58.0134C47.6501 57.5311 36.3386 50.2961 32.3556 46.7591C31.2403 45.7944 29.9658 43.8651 32.5149 41.6142L49.2433 25.5367C51.1552 23.6074 53.067 19.1057 45.101 24.5721L22.7965 39.8458C22.7965 39.8458 20.2474 41.4535 15.4679 40.0065L5.11219 36.791C5.11219 36.791 1.28855 34.3794 7.82061 31.9676C23.7525 24.4112 43.3486 16.6939 60.7142 9.45907Z" fill="#0B6606"/>
</svg>
