<svg width="50" height="50" viewBox="0 0 50 50" fill="none" xmlns="http://www.w3.org/2000/svg">
<path d="M45.7373 4.37079C45.7373 4.37079 50.3626 2.55279 49.9772 6.96793C49.8487 8.78596 48.6924 15.149 47.793 22.0314L44.7094 42.4191C44.7094 42.4191 44.4525 45.4057 42.1398 45.9252C39.827 46.4446 36.3581 44.1072 35.7156 43.5877C35.2017 43.1982 26.0795 37.3546 22.8674 34.4977C21.968 33.7186 20.9401 32.1603 22.9958 30.3423L36.4866 17.3566C38.0284 15.7983 39.5701 12.1623 33.146 16.5774L15.1585 28.9139C15.1585 28.9139 13.1027 30.2124 9.24834 29.0437L0.89693 26.4466C0.89693 26.4466 -2.18666 24.4987 3.08113 22.5508C15.9294 16.4475 31.7328 10.2143 45.7373 4.37079Z" fill="#27A7E7"/>
</svg>
