<svg width="70" height="70" viewBox="0 0 70 70" fill="none" xmlns="http://www.w3.org/2000/svg">
<path d="M68.4134 16.8696C67.6811 19.2093 66.61 21.4291 65.2342 23.4583L65.2896 23.3708C63.983 25.5486 62.4225 28.0647 60.6084 30.9191C59.0528 33.1728 58.2293 34.3394 58.138 34.4191C57.7222 34.9397 57.4533 35.5621 57.3592 36.2216L57.3563 36.2421C57.4306 36.8363 57.7065 37.3871 58.138 37.8025L59.3046 39.1033C65.5463 45.518 69.057 49.9397 69.8367 52.3683C69.9846 52.7672 70.0321 53.1964 69.9752 53.618C69.9182 54.0397 69.7585 54.4408 69.51 54.7862L69.5159 54.7775C69.2223 55.0803 68.8643 55.3134 68.4685 55.4593C68.0727 55.6052 67.6492 55.6602 67.2292 55.6204H67.2409H59.5525C58.5696 55.6204 57.6655 55.2762 56.9567 54.7046L56.9655 54.7104C55.9535 53.8807 55.0246 52.9547 54.1917 51.9454L54.1655 51.9104C52.8218 50.3918 51.6299 49.1133 50.5896 48.075C47.1246 44.7811 44.5677 43.1341 42.9188 43.1341C42.3866 43.0865 41.8544 43.2257 41.4138 43.5279L41.4225 43.5221C41.2332 43.7594 41.0942 44.0329 41.014 44.3257C40.9338 44.6186 40.914 44.9247 40.9559 45.2254V45.2137C40.8425 46.5746 40.8055 47.9408 40.845 49.3058V49.2562V52.6366C40.9279 53.0404 40.8994 53.4591 40.7628 53.848C40.6261 54.2369 40.3864 54.5813 40.0692 54.8446L40.0663 54.8475C38.5893 55.5148 36.9632 55.7833 35.35 55.6262L35.388 55.6291C30.9727 55.5534 26.6617 54.2747 22.9192 51.9308L23.0213 51.9891C18.7058 49.3874 15.0068 45.8795 12.18 41.7079L12.1013 41.5854C9.3574 37.9264 6.94547 34.0298 4.89421 29.9421L4.69004 29.4929C3.32317 26.8458 2.12211 24.1164 1.09379 21.3204L0.918789 20.7808C0.442017 19.3293 0.138522 17.8265 0.0146224 16.3037L0.00878906 16.2308C0.00878906 14.7569 0.876011 14.02 2.61046 14.02H10.2813C11.0568 13.9592 11.8266 14.1936 12.4367 14.6762L12.4309 14.6704C13.0142 15.3091 13.4459 16.0937 13.6588 16.9687L13.6675 17.0037C14.9348 20.633 16.4824 24.1582 18.2963 27.5475L18.1009 27.1479C19.4119 29.8109 20.9985 32.3291 22.8346 34.6612L22.7675 34.5708C24.3231 36.4803 25.5364 37.435 26.4075 37.435L26.5009 37.4379C26.706 37.4382 26.9075 37.3844 27.0852 37.282C27.2629 37.1796 27.4104 37.0322 27.513 36.8546L27.5159 36.8487C27.7951 36.1177 27.9058 35.3331 27.8396 34.5533V34.5708V23.2571C27.7851 21.9743 27.4674 20.7165 26.9063 19.5616L26.9296 19.6171C26.5894 18.8831 26.1476 18.2008 25.6171 17.59L25.6259 17.6016C25.1368 17.1134 24.8186 16.4801 24.7188 15.7962L24.7159 15.7787C24.7159 15.2829 24.9434 14.8366 25.2992 14.545L25.3021 14.5421C25.6683 14.2067 26.1472 14.0214 26.6438 14.0229H38.7596C39.0637 13.9874 39.3719 14.028 39.6565 14.141C39.9411 14.254 40.1931 14.4359 40.39 14.6704L40.393 14.6733C40.7613 15.354 40.9225 16.1276 40.8567 16.8987V16.8841V31.9721C40.8102 32.5671 40.9488 33.1621 41.2534 33.6754L41.2475 33.6637C41.3544 33.8234 41.4988 33.9542 41.6682 34.0448C41.8376 34.1353 42.0267 34.1828 42.2188 34.1829H42.2217C42.7136 34.1509 43.188 33.9878 43.5955 33.7104L43.5867 33.7162C44.38 33.1708 45.0625 32.5496 45.6546 31.8466L45.6663 31.8321C47.4682 29.7932 49.0837 27.5969 50.4934 25.2696L50.6071 25.0654C51.6105 23.4029 52.6955 21.3554 53.6784 19.2525L53.8592 18.8237L55.16 16.2221C55.3891 15.5494 55.8309 14.9695 56.4186 14.5701C57.0064 14.1708 57.7082 13.9736 58.418 14.0083H58.4092H66.083C68.1557 14.0083 68.9335 14.9621 68.4163 16.8696H68.4134Z" fill="#0B6606"/>
</svg>
