<svg width="520" height="520" viewBox="0 0 520 520" fill="none" xmlns="http://www.w3.org/2000/svg">
<g clip-path="url(#clip0_2005_520)">
<path d="M192.65 334.79L223.364 185H293.168C324.526 185 337.448 198.392 331.936 225.175C327.569 246.364 312.283 261.364 286.08 270.175L321.519 335H288.335L254.937 269.65L257.514 256.958C283.861 252.413 298.68 242.098 301.974 226.014C304.265 214.965 299.038 209.441 286.295 209.441H247.312L221.646 334.79H192.65Z" fill="white"/>
<path d="M75.0787 310.874C106.938 310.874 126.626 292.552 134.143 255.909C140.515 224.72 127.772 209.126 95.9124 209.126H80.0723H64.2322L43.3985 310.874H75.0787ZM10 335L40.7137 185H70.783L64.2322 209.126H80.0723L85.8177 185H100.852C151.684 185 172.267 208.636 162.602 255.909C151.791 308.636 120.97 335 70.1387 335H10Z" fill="white"/>
<path d="M420.16 310.874C452.02 310.874 471.708 292.552 479.225 255.909C485.597 224.72 472.853 209.126 440.994 209.126H425.154H409.314L388.48 310.874H420.16ZM355.082 335L385.795 185H415.865L409.314 209.126H425.154L430.9 185H445.934C496.766 185 517.349 208.636 507.684 255.909C496.873 308.636 466.052 335 415.22 335H355.082Z" fill="white"/>
<g opacity="0.3">
<path d="M293.168 -117C309.038 -117 320.79 -113.627 327.817 -106.345C334.704 -99.2083 336.601 -88.8117 334.146 -75.6992L333.894 -74.4219C329.472 -52.9668 314.278 -37.7804 288.968 -28.7119L323.274 34.041L324.891 37H287.111L286.554 35.9102L253.156 -29.4395L252.838 -30.0625L252.976 -30.748L255.554 -43.4404L255.826 -44.7803L257.174 -45.0127C283.282 -49.517 296.978 -59.5588 300.014 -74.3867L300.015 -74.3916C301.096 -79.6025 300.294 -82.9545 298.319 -85.042C296.272 -87.2055 292.47 -88.5596 286.295 -88.5596H248.944L223.605 35.1914L223.277 36.79H190.198L190.691 34.3887L221.405 -115.401L221.732 -117H293.168Z" stroke="white" stroke-width="4"/>
<path d="M73.3984 -117L72.7129 -114.476L66.1787 -90.4111L45.8496 8.87402H75.0791C90.6021 8.87394 102.97 4.42318 112.377 -4.33105C121.818 -13.1168 128.477 -26.423 132.184 -44.4912L132.464 -45.917C135.21 -60.5195 133.45 -71.0192 127.816 -77.9131C122.001 -85.0299 111.59 -88.874 95.9121 -88.874H77.54L78.127 -91.3379L83.8721 -115.463L84.2383 -117H100.853C126.495 -117 145.068 -111.049 155.922 -98.5859C166.805 -86.0885 169.45 -67.6004 164.562 -43.6904V-43.6895C159.096 -17.0325 148.522 3.19413 132.678 16.7471C116.82 30.311 95.9065 37 70.1387 37H7.54883L8.04102 34.5986L38.7539 -115.401L39.082 -117H73.3984Z" stroke="white" stroke-width="4"/>
<path d="M418.48 -117L417.795 -114.476L411.26 -90.4111L390.931 8.87402H420.161C435.684 8.87394 448.052 4.42318 457.459 -4.33105C466.9 -13.1168 473.558 -26.423 477.265 -44.4912L477.546 -45.917C480.292 -60.5195 478.532 -71.0192 472.898 -77.9131C467.082 -85.0299 456.672 -88.874 440.994 -88.874H422.622L423.209 -91.3379L428.954 -115.463L429.32 -117H445.934C471.577 -117 490.15 -111.049 501.004 -98.5859C511.887 -86.0885 514.532 -67.6004 509.643 -43.6904V-43.6895C504.178 -17.0325 493.604 3.19413 477.76 16.7471C461.902 30.311 440.988 37 415.22 37H352.631L353.123 34.5986L383.836 -115.401L384.164 -117H418.48Z" stroke="white" stroke-width="4"/>
</g>
<g opacity="0.3">
<path d="M293.168 483C309.038 483 320.79 486.373 327.817 493.655C334.704 500.792 336.601 511.188 334.146 524.301L333.894 525.578C329.472 547.033 314.278 562.22 288.968 571.288L323.274 634.041L324.891 637H287.111L286.554 635.91L253.156 570.561L252.838 569.938L252.976 569.252L255.554 556.56L255.826 555.22L257.174 554.987C283.282 550.483 296.978 540.441 300.014 525.613L300.015 525.608C301.096 520.398 300.294 517.046 298.319 514.958C296.272 512.795 292.47 511.44 286.295 511.44H248.944L223.605 635.191L223.277 636.79H190.198L190.691 634.389L221.405 484.599L221.732 483H293.168Z" stroke="white" stroke-width="4"/>
<path d="M73.3984 483L72.7129 485.524L66.1787 509.589L45.8496 608.874H75.0791C90.6021 608.874 102.97 604.423 112.377 595.669C121.818 586.883 128.477 573.577 132.184 555.509L132.464 554.083C135.21 539.48 133.45 528.981 127.816 522.087C122.001 514.97 111.59 511.126 95.9121 511.126H77.54L78.127 508.662L83.8721 484.537L84.2383 483H100.853C126.495 483 145.068 488.951 155.922 501.414C166.805 513.912 169.45 532.4 164.562 556.31V556.311C159.096 582.967 148.522 603.194 132.678 616.747C116.82 630.311 95.9065 637 70.1387 637H7.54883L8.04102 634.599L38.7539 484.599L39.082 483H73.3984Z" stroke="white" stroke-width="4"/>
<path d="M418.48 483L417.795 485.524L411.26 509.589L390.931 608.874H420.161C435.684 608.874 448.052 604.423 457.459 595.669C466.9 586.883 473.558 573.577 477.265 555.509L477.546 554.083C480.292 539.48 478.532 528.981 472.898 522.087C467.082 514.97 456.672 511.126 440.994 511.126H422.622L423.209 508.662L428.954 484.537L429.32 483H445.934C471.577 483 490.15 488.951 501.004 501.414C511.887 513.912 514.532 532.4 509.643 556.31V556.311C504.178 582.967 493.604 603.194 477.76 616.747C461.902 630.311 440.988 637 415.22 637H352.631L353.123 634.599L383.836 484.599L384.164 483H418.48Z" stroke="white" stroke-width="4"/>
</g>
<path d="M293.168 33C309.038 33 320.79 36.3729 327.817 43.6553C334.704 50.7917 336.601 61.1883 334.146 74.3008L333.894 75.5781C329.472 97.0332 314.278 112.22 288.968 121.288L323.274 184.041L324.891 187H287.111L286.554 185.91L253.156 120.561L252.838 119.938L252.976 119.252L255.554 106.56L255.826 105.22L257.174 104.987C283.282 100.483 296.978 90.4412 300.014 75.6133L300.015 75.6084C301.096 70.3975 300.294 67.0455 298.319 64.958C296.272 62.7945 292.47 61.4404 286.295 61.4404H248.944L223.605 185.191L223.277 186.79H190.198L190.691 184.389L221.405 34.5986L221.732 33H293.168Z" stroke="white" stroke-width="4"/>
<path d="M73.3984 33L72.7129 35.5244L66.1787 59.5889L45.8496 158.874H75.0791C90.6021 158.874 102.97 154.423 112.377 145.669C121.818 136.883 128.477 123.577 132.184 105.509L132.464 104.083C135.21 89.4805 133.45 78.9808 127.816 72.0869C122.001 64.9701 111.59 61.126 95.9121 61.126H77.54L78.127 58.6621L83.8721 34.5371L84.2383 33H100.853C126.495 33 145.068 38.9506 155.922 51.4141C166.805 63.9115 169.45 82.3996 164.562 106.31V106.311C159.096 132.967 148.522 153.194 132.678 166.747C116.82 180.311 95.9065 187 70.1387 187H7.54883L8.04102 184.599L38.7539 34.5986L39.082 33H73.3984Z" stroke="white" stroke-width="4"/>
<path d="M418.48 33L417.795 35.5244L411.26 59.5889L390.931 158.874H420.161C435.684 158.874 448.052 154.423 457.459 145.669C466.9 136.883 473.558 123.577 477.265 105.509L477.546 104.083C480.292 89.4805 478.532 78.9808 472.898 72.0869C467.082 64.9701 456.672 61.126 440.994 61.126H422.622L423.209 58.6621L428.954 34.5371L429.32 33H445.934C471.577 33 490.15 38.9506 501.004 51.4141C511.887 63.9115 514.532 82.3996 509.643 106.31V106.311C504.178 132.967 493.604 153.194 477.76 166.747C461.902 180.311 440.988 187 415.22 187H352.631L353.123 184.599L383.836 34.5986L384.164 33H418.48Z" stroke="white" stroke-width="4"/>
<path d="M293.168 333C309.038 333 320.79 336.373 327.817 343.655C334.704 350.792 336.601 361.188 334.146 374.301L333.894 375.578C329.472 397.033 314.278 412.22 288.968 421.288L323.274 484.041L324.891 487H287.111L286.554 485.91L253.156 420.561L252.838 419.938L252.976 419.252L255.554 406.56L255.826 405.22L257.174 404.987C283.282 400.483 296.978 390.441 300.014 375.613L300.015 375.608C301.096 370.398 300.294 367.046 298.319 364.958C296.272 362.795 292.47 361.44 286.295 361.44H248.944L223.605 485.191L223.277 486.79H190.198L190.691 484.389L221.405 334.599L221.732 333H293.168Z" stroke="white" stroke-width="4"/>
<path d="M73.3984 333L72.7129 335.524L66.1787 359.589L45.8496 458.874H75.0791C90.6021 458.874 102.97 454.423 112.377 445.669C121.818 436.883 128.477 423.577 132.184 405.509L132.464 404.083C135.21 389.48 133.45 378.981 127.816 372.087C122.001 364.97 111.59 361.126 95.9121 361.126H77.54L78.127 358.662L83.8721 334.537L84.2383 333H100.853C126.495 333 145.068 338.951 155.922 351.414C166.805 363.912 169.45 382.4 164.562 406.31V406.311C159.096 432.967 148.522 453.194 132.678 466.747C116.82 480.311 95.9065 487 70.1387 487H7.54883L8.04102 484.599L38.7539 334.599L39.082 333H73.3984Z" stroke="white" stroke-width="4"/>
<path d="M418.48 333L417.795 335.524L411.26 359.589L390.931 458.874H420.161C435.684 458.874 448.052 454.423 457.459 445.669C466.9 436.883 473.558 423.577 477.265 405.509L477.546 404.083C480.292 389.48 478.532 378.981 472.898 372.087C467.082 364.97 456.672 361.126 440.994 361.126H422.622L423.209 358.662L428.954 334.537L429.32 333H445.934C471.577 333 490.15 338.951 501.004 351.414C511.887 363.912 514.532 382.4 509.643 406.31V406.311C504.178 432.967 493.604 453.194 477.76 466.747C461.902 480.311 440.988 487 415.22 487H352.631L353.123 484.599L383.836 334.599L384.164 333H418.48Z" stroke="white" stroke-width="4"/>
</g>
<defs>
<clipPath id="clip0_2005_520">
<rect width="520" height="520" fill="white"/>
</clipPath>
</defs>
</svg>
