<svg width="80" height="80" viewBox="0 0 80 80" fill="none" xmlns="http://www.w3.org/2000/svg">
<rect x="0.5" y="79.5" width="79" height="79" rx="39.5" transform="rotate(-90 0.5 79.5)" fill="black" fill-opacity="0.3" stroke="#AA7C3E"/>
<path d="M29.7764 38.2227C30.7492 37.2498 32.3252 37.2459 33.3029 38.2138L50.9631 55.6968C51.9478 56.6717 51.9518 58.2614 50.972 59.2412V59.2412C49.9992 60.214 48.4232 60.218 47.4455 59.2501L29.7853 41.767C28.8006 40.7922 28.7966 39.2024 29.7764 38.2227V38.2227Z" fill="#AA7C3E"/>
<path d="M50.9602 20.9983C51.9447 21.9828 51.9351 23.5818 50.939 24.5545L33.3037 41.7743C32.3242 42.7307 30.7576 42.7213 29.7896 41.7533V41.7533C28.8051 40.7688 28.8147 39.1698 29.8108 38.1971L47.4461 20.9773C48.4256 20.0209 49.9922 20.0302 50.9602 20.9983V20.9983Z" fill="#AA7C3E"/>
</svg>
