<svg width="80" height="80" viewBox="0 0 80 80" fill="none" xmlns="http://www.w3.org/2000/svg">
<rect x="79.5007" y="0.5" width="79" height="79" rx="39.5" transform="rotate(90 79.5007 0.5)" fill="black" fill-opacity="0.3" stroke="#AA7C3E"/>
<path d="M50.2244 41.7773C49.2515 42.7502 47.6755 42.7541 46.6978 41.7862L29.0376 24.3032C28.0529 23.3283 28.0489 21.7386 29.0287 20.7588V20.7588C30.0015 19.786 31.5775 19.782 32.5553 20.7499L50.2154 38.233C51.2001 39.2078 51.2041 40.7976 50.2244 41.7773V41.7773Z" fill="#AA7C3E"/>
<path d="M29.0405 59.0017C28.0561 58.0172 28.0656 56.4182 29.0617 55.4455L46.697 38.2257C47.6765 37.2693 49.2431 37.2787 50.2111 38.2467V38.2467C51.1956 39.2312 51.1861 40.8302 50.1899 41.8029L32.5546 59.0227C31.5751 59.9791 30.0086 59.9698 29.0405 59.0017V59.0017Z" fill="#AA7C3E"/>
</svg>
